<?xml version="1.0" encoding="iso-8859-1"?>
<!-- Generator: Adobe Illustrator 17.0.0, SVG Export Plug-In . SVG Version: 6.00 Build 0)  -->
<!DOCTYPE svg PUBLIC "-//W3C//DTD SVG 1.1//EN" "http://www.w3.org/Graphics/SVG/1.1/DTD/svg11.dtd">
<svg version="1.1" id="Calque_1" xmlns="http://www.w3.org/2000/svg" xmlns:xlink="http://www.w3.org/1999/xlink" x="0px" y="0px"
	 width="2048px" height="2048px" viewBox="0 0 2048 2048" style="enable-background:new 0 0 2048 2048;" xml:space="preserve">
<path style="fill:none;stroke:#000000;stroke-miterlimit:10;" d="M1367.793,1220.89c-0.138,0.242-0.277,0.501-0.415,0.76
	c-0.121,0.207-0.242,0.432-0.363,0.639l1.123-0.259L1367.793,1220.89z M684.622,1221.65c-0.138-0.259-0.276-0.518-0.415-0.76
	l-0.346,1.141l1.123,0.259C684.864,1222.082,684.743,1221.857,684.622,1221.65z"/>
<path style="fill:none;stroke:#000000;stroke-miterlimit:10;" d="M1367.793,1220.89c-0.138,0.242-0.277,0.501-0.415,0.76
	c-0.121,0.207-0.242,0.432-0.363,0.639l1.123-0.259L1367.793,1220.89z M684.622,1221.65c-0.138-0.259-0.276-0.518-0.415-0.76
	l-0.346,1.141l1.123,0.259C684.864,1222.082,684.743,1221.857,684.622,1221.65z"/>
<path style="fill:none;stroke:#222222;stroke-width:20;stroke-miterlimit:10;" d="M1414.794,1035.409
	c0,67.166-17.021,130.341-47.001,185.48c-0.138,0.242-0.277,0.501-0.415,0.76c-0.121,0.207-0.242,0.432-0.363,0.639
	c-66.095,120.336-194.034,201.914-341.015,201.914s-274.92-81.578-341.015-201.914c-0.121-0.207-0.242-0.432-0.363-0.639
	c-0.138-0.259-0.276-0.518-0.415-0.76c-29.98-55.14-47.001-118.314-47.001-185.48c0-118.262,52.807-224.187,136.112-295.483
	c66.907-57.265,153.479-92.205,248.171-93.293c1.503-0.017,3.007-0.017,4.51-0.017s3.007,0,4.51,0.017
	c94.693,1.089,181.264,36.028,248.171,93.293C1361.987,811.222,1414.794,917.147,1414.794,1035.409z"/>
<line style="fill:none;stroke:#000000;stroke-miterlimit:10;" x1="684.622" y1="1221.65" x2="683.862" y2="1222.03"/>
<line style="fill:none;stroke:#000000;stroke-miterlimit:10;" x1="1368.138" y1="1222.03" x2="1367.378" y2="1221.65"/>
<polygon style="fill:#E01F25;" points="1275.035,739.926 1099.939,1035.409 1026.207,1159.823 952.474,1035.409 777.379,739.926 
	1026.207,817.685 "/>
<polygon style="fill:#283D96;" points="964,1082.064 897.732,1115.189 873.8,1035.409 808.483,817.685 936.56,1035.409 "/>
<polygon style="fill:#283D96;" points="1243.932,817.685 1178.614,1035.409 1154.682,1115.189 1088.414,1082.064 1115.854,1035.409 
	"/>
<linearGradient id="SVGID_1_" gradientUnits="userSpaceOnUse" x1="911.6636" y1="1305.4747" x2="674.649" y2="894.9534">
	<stop  offset="0" style="stop-color:#394A9D"/>
	<stop  offset="0.0501" style="stop-color:#3D4799"/>
	<stop  offset="0.382" style="stop-color:#4F3787"/>
	<stop  offset="0.7033" style="stop-color:#572D7E"/>
	<stop  offset="1" style="stop-color:#592A7B"/>
</linearGradient>
<path style="fill:url(#SVGID_1_);" d="M948.448,1284.237l-263.256-61.948c-0.121-0.207-0.242-0.432-0.363-0.639
	c-0.138-0.259-0.276-0.518-0.415-0.76l57.075-185.48l66.993-217.724l65.317,217.724l23.932,79.78L948.448,1284.237z"/>
<linearGradient id="SVGID_2_" gradientUnits="userSpaceOnUse" x1="1140.7505" y1="1305.4747" x2="1377.765" y2="894.9534">
	<stop  offset="0" style="stop-color:#394A9D"/>
	<stop  offset="0.0501" style="stop-color:#3D4799"/>
	<stop  offset="0.382" style="stop-color:#4F3787"/>
	<stop  offset="0.7033" style="stop-color:#572D7E"/>
	<stop  offset="1" style="stop-color:#592A7B"/>
</linearGradient>
<path style="fill:url(#SVGID_2_);" d="M1368,1220.89c-0.138,0.242-0.276,0.501-0.415,0.76c-0.121,0.207-0.242,0.432-0.363,0.639
	l-263.256,61.948l50.716-169.048l23.932-79.78l65.317-217.724l66.994,217.724L1368,1220.89z"/>
<path style="fill:none;stroke:#222222;stroke-width:20;stroke-miterlimit:10;" d="M2036.864,1035.409
	c-267.49,241.657-622.001,388.794-1010.864,388.794S282.626,1277.066,15.136,1035.409
	c140.899-127.282,305.937-228.352,487.426-295.483c161.738-59.857,336.505-92.775,518.927-93.293
	c1.503-0.017,3.007-0.017,4.51-0.017s3.007,0,4.51,0.017c182.422,0.518,357.189,33.436,518.927,93.293
	C1730.926,807.058,1895.965,908.127,2036.864,1035.409z"/>
<rect x="-1917" y="1097.182" style="fill:none;" width="1890" height="343.636"/>
<text transform="matrix(1 0 0 1 -1869.9296 1422.1052)" style="display:none;fill:#222222; font-family:'Poppins-Medium'; font-size:439.0909; letter-spacing:-3;">madara</text>
</svg>
